<svg width="28" height="31" viewBox="0 0 28 31" fill="none" xmlns="http://www.w3.org/2000/svg">
<rect width="28" height="31" fill="white"/>
<path d="M16 23.5C16 24.5947 15.3555 25.6952 14.0903 26.565C12.8296 27.4318 11.0329 28 9 28C6.96706 28 5.17041 27.4318 3.90967 26.565C2.64451 25.6952 2 24.5947 2 23.5C2 22.4053 2.64451 21.3048 3.90967 20.435C5.17041 19.5682 6.96706 19 9 19C11.0329 19 12.8296 19.5682 14.0903 20.435C15.3555 21.3048 16 22.4053 16 23.5Z" fill="white" stroke="#162D5C" stroke-width="2"/>
<path d="M15 6.1236C15 6.72148 14.8097 8.16747 14.4299 10.0712C14.0561 11.9451 13.515 14.1818 12.8484 16.326C12.1783 18.4813 11.3964 20.4935 10.5541 21.9471C10.132 22.6756 9.72116 23.2171 9.33846 23.5654C8.95458 23.9147 8.67871 24 8.5 24C8.32129 24 8.04542 23.9147 7.66154 23.5654C7.27884 23.2171 6.868 22.6756 6.44591 21.9471C5.60361 20.4935 4.82169 18.4813 4.15161 16.326C3.48495 14.1818 2.94391 11.9451 2.57006 10.0712C2.19026 8.16747 2 6.72148 2 6.1236C2 5.13578 2.58538 4.12935 3.76078 3.32638C4.93127 2.52677 6.60381 2 8.5 2C10.3962 2 12.0687 2.52677 13.2392 3.32638C14.4146 4.12935 15 5.13578 15 6.1236Z" fill="white" stroke="#162D5C" stroke-width="2"/>
<path d="M10.5 8C10.5 9.46994 9.52308 10.5 8.5 10.5C7.47692 10.5 6.5 9.46994 6.5 8C6.5 6.53006 7.47692 5.5 8.5 5.5C9.52308 5.5 10.5 6.53006 10.5 8Z" fill="white" stroke="#DE2B56"/>
</svg>
