<svg width="33" height="38" viewBox="0 0 33 38" fill="none" xmlns="http://www.w3.org/2000/svg">
<g clip-path="url(#clip0)">
<rect width="32" height="36.5907" transform="translate(0.0012207 0.971191)" fill="white"/>
<path d="M13.6402 4.9896C14.2299 3.12828 16.8638 3.12828 17.4534 4.9896L19.4826 11.3949C19.7459 12.226 20.5173 12.7909 21.3892 12.7909H28.0613C29.9865 12.7909 30.8 15.2442 29.2563 16.3946L23.7721 20.4813C23.0888 20.9904 22.8032 21.8766 23.0605 22.689L25.1346 29.2361C25.7212 31.0877 23.5904 32.6044 22.033 31.4438L16.7419 27.501C16.0328 26.9726 15.0609 26.9726 14.3518 27.501L9.06065 31.4438C7.50324 32.6044 5.37243 31.0877 5.959 29.2361L8.03311 22.689C8.29046 21.8766 8.00482 20.9904 7.32153 20.4813L1.8373 16.3946C0.293597 15.2442 1.10717 12.7909 3.03234 12.7909H9.70443C10.5763 12.7909 11.3477 12.226 11.611 11.3949L13.6402 4.9896Z" fill="#FFCC47"/>
</g>
<defs>
<clipPath id="clip0">
<rect width="32" height="36.5907" fill="white" transform="translate(0.0012207 0.971191)"/>
</clipPath>
</defs>
</svg>
