<svg width="26" height="32" viewBox="0 0 26 32" fill="none" xmlns="http://www.w3.org/2000/svg">
<rect width="26" height="32" fill="white"/>
<path d="M9 1H13C14.6569 1 16 2.34315 16 4V8C16 9.65685 14.6569 11 13 11H9C7.34315 11 6 9.65685 6 8V4C6 2.34315 7.34315 1 9 1Z" fill="white" stroke="#162D5C" stroke-width="2"/>
<path d="M6 9H16C18.2091 9 20 10.7909 20 13V27C20 29.2091 18.2091 31 16 31H6C3.79086 31 2 29.2091 2 27V13C2 10.7909 3.79086 9 6 9Z" fill="white" stroke="#162D5C" stroke-width="2"/>
<path d="M6.42857 15.68V28.1801" stroke="#DE2B56" stroke-width="2"/>
<path d="M13.6667 15.68V28.1801" stroke="#DE2B56" stroke-width="2"/>
<path d="M10.0476 12.8V25.3001" stroke="#DE2B56" stroke-width="2"/>
</svg>
